<svg xmlns="http://www.w3.org/2000/svg" version="1.1" xmlns:xlink="http://www.w3.org/1999/xlink" xmlns:svgjs="http://svgjs.dev/svgjs" width="1000" height="623" viewBox="0 0 1000 623"><g transform="matrix(1,0,0,1,-0.6060606060606233,0.2522267206477977)"><svg viewBox="0 0 396 247" data-background-color="#ff4136" preserveAspectRatio="xMidYMid meet" height="623" width="1000" xmlns="http://www.w3.org/2000/svg" xmlns:xlink="http://www.w3.org/1999/xlink"><g id="tight-bounds" transform="matrix(1,0,0,1,0.2400000000000091,-0.09999999999999432)"><svg viewBox="0 0 395.52 247.2" height="247.2" width="395.52"><g><svg></svg></g><g><svg viewBox="0 0 395.52 247.2" height="247.2" width="395.52"><g transform="matrix(1,0,0,1,75.54432,57.63421456066945)"><svg viewBox="0 0 244.43135999999998 131.9315708786611" height="131.9315708786611" width="244.43135999999998"><g><svg viewBox="0 0 244.43135999999998 131.9315708786611" height="131.9315708786611" width="244.43135999999998"><g><svg viewBox="0 0 244.43135999999998 131.9315708786611" height="131.9315708786611" width="244.43135999999998"><g><svg viewBox="0 0 244.43135999999998 131.9315708786611" height="131.9315708786611" width="244.43135999999998"><g id="textblocktransform"><svg viewBox="0 0 244.43135999999998 131.9315708786611" height="131.9315708786611" width="244.43135999999998" id="textblock"><g><svg viewBox="0 0 244.43135999999998 131.9315708786611" height="131.9315708786611" width="244.43135999999998"><g transform="matrix(1,0,0,1,0,0)"><svg width="244.43135999999998" viewBox="3.6500000953674316 -35.599998474121094 83.63999938964844 45.14999771118164" height="131.9315708786611" data-palette-color="#ffffff"><path d="M23.1-8.7L23.1-8.7Q23.1-4.3 20.15-1.98 17.2 0.35 12.6 0.35L12.6 0.35Q7.4 0.35 3.75-1.85L3.75-1.85 3.75-5.3Q5.25-4.15 7.63-3.4 10-2.65 12.45-2.65L12.45-2.65Q16-2.65 17.98-4.2 19.95-5.75 19.95-8.65L19.95-8.65Q19.95-10.85 18.45-12.23 16.95-13.6 14.1-14.85L14.1-14.85Q13.7-15.05 12.35-15.63 11-16.2 10.45-16.45 9.9-16.7 8.75-17.3 7.6-17.9 7.08-18.35 6.55-18.8 5.75-19.55 4.95-20.3 4.6-21.05 4.25-21.8 3.95-22.83 3.65-23.85 3.65-25L3.65-25Q3.65-29.25 6.7-31.63 9.75-34 14.15-34L14.15-34Q18.35-34 21.15-32.5L21.15-32.5 21.15-29.05Q19.95-29.85 18-30.4 16.05-30.95 14.2-30.95L14.2-30.95Q10.85-30.95 8.85-29.38 6.85-27.8 6.85-25.2L6.85-25.2Q6.85-23.85 7.38-22.8 7.9-21.75 9.15-20.88 10.4-20 11.33-19.53 12.25-19.05 14.15-18.25L14.15-18.25Q15.9-17.5 16.8-17.07 17.7-16.65 19.1-15.75 20.5-14.85 21.23-13.98 21.95-13.1 22.53-11.73 23.1-10.35 23.1-8.7ZM33.4-25.35L33.4 0 30.35 0 30.35-25.35 33.4-25.35ZM33.37-34.98Q34-34.35 34-33.45 34-32.55 33.37-31.95 32.75-31.35 31.85-31.35 30.95-31.35 30.35-31.95 29.75-32.55 29.75-33.45 29.75-34.35 30.35-34.98 30.95-35.6 31.85-35.6 32.75-35.6 33.37-34.98ZM60.35-17.7L60.35 0 57.3 0 57.3-16.75Q57.3-19.7 55.8-21.25 54.3-22.8 51.85-22.8L51.85-22.8Q48.75-22.8 46.5-20.43 44.25-18.05 44.25-14L44.25-14 44.25 0 41.2 0 41.2-25.35 44.25-25.35 44.25-21Q46.6-25.75 52.3-25.75L52.3-25.75Q55.95-25.75 58.15-23.5 60.35-21.25 60.35-17.7L60.35-17.7ZM87.29-25.35L87.29-1.95Q87.29 3.8 84.19 6.68 81.09 9.55 76.19 9.55L76.19 9.55Q71.84 9.55 68.79 8.1L68.79 8.1 68.79 5.1Q71.89 6.65 75.94 6.65L75.94 6.65Q79.74 6.65 81.99 4.58 84.24 2.5 84.24-1.95L84.24-1.95 84.24-5.25Q81.69-0.6 76.64-0.6L76.64-0.6Q72.24-0.6 69.17-3.85 66.09-7.1 66.09-12.65L66.09-12.65Q66.09-18.35 68.92-22.05 71.74-25.75 76.34-25.75L76.34-25.75Q81.79-25.75 84.24-20.9L84.24-20.9 84.24-25.35 87.29-25.35ZM69.29-12.8L69.29-12.8Q69.29-8.25 71.59-5.88 73.89-3.5 76.69-3.5L76.69-3.5Q79.54-3.5 81.89-5.73 84.24-7.95 84.24-12.55L84.24-12.55Q84.24-17.8 81.99-20.33 79.74-22.85 76.94-22.85L76.94-22.85Q73.39-22.85 71.34-20.05 69.29-17.25 69.29-12.8Z" opacity="1" transform="matrix(1,0,0,1,0,0)" fill="#ffffff" class="undefined-text-0" data-fill-palette-color="primary" id="text-0"></path></svg></g></svg></g></svg></g></svg></g></svg></g></svg></g></svg></g><g><path d="M245.816 0c68.262 0 123.6 55.338 123.6 123.6 0 68.262-55.338 123.6-123.6 123.6-37.02 0-70.239-16.275-92.892-42.061l8.079 0c21.406 22.26 51.492 36.112 84.813 36.112 64.977 0 117.651-52.674 117.651-117.651 0-64.977-52.674-117.651-117.651-117.651-33.321 0-63.407 13.852-84.813 36.112l-8.079 0c22.652-25.786 55.871-42.061 92.892-42.061z" fill="#ffffff" stroke="transparent" data-fill-palette-color="tertiary"></path></g></svg></g><defs></defs></svg><rect width="395.52" height="247.2" fill="none" stroke="none" visibility="hidden"></rect></g></svg></g></svg>